<?xml version="1.0" encoding="utf-8"?>
<!-- Generator: Adobe Illustrator 24.1.0, SVG Export Plug-In . SVG Version: 6.00 Build 0)  -->
<svg version="1.1" id="图层_1" xmlns="http://www.w3.org/2000/svg" xmlns:xlink="http://www.w3.org/1999/xlink" x="0px" y="0px"
	 viewBox="0 0 200 200" style="enable-background:new 0 0 200 200;" xml:space="preserve">
<style type="text/css">
	.st0{fill:#2C74D8;}
</style>
<path class="st0" d="M63.8,32.2l24.3,24.3h23.8l24.3-24.3c2.9-2.9,7.7-2.9,10.6,0s2.9,7.7,0,10.6l0,0l-13.7,13.7h15.6
	c14.5,0,26.3,11.8,26.3,26.2c0,0,0,0,0,0v60c0,14.5-11.8,26.2-26.2,26.2H51.3c-14.5,0-26.2-11.8-26.3-26.2l0,0v-60
	c0-14.5,11.8-26.2,26.2-26.2l0,0h15.6L53.2,42.8c-2.9-2.9-2.9-7.7,0-10.6S60.9,29.3,63.8,32.2L63.8,32.2z M148.7,71.6H51.2
	c-5.8,0-10.6,4.4-11.2,10.2L40,82.8v60c0,5.8,4.4,10.6,10.2,11.2l1.1,0.1h97.5c5.8,0,10.6-4.4,11.2-10.2l0.1-1.1v-60
	C160,76.6,155,71.6,148.7,71.6z M70,94.1c4.1,0,7.5,3.4,7.5,7.5v15c0,4.1-3.4,7.5-7.5,7.5c-4.1,0-7.5-3.4-7.5-7.5v-15
	C62.5,97.4,65.9,94.1,70,94.1z M130,94.1c4.1,0,7.5,3.4,7.5,7.5l0,0v15c0,4.1-3.4,7.5-7.5,7.5c-4.1,0-7.5-3.4-7.5-7.5v-15
	C122.5,97.4,125.9,94.1,130,94.1L130,94.1L130,94.1z"/>
</svg>
