<svg t="1676791573758" class="icon" viewBox="0 0 1024 1024" version="1.1" xmlns="http://www.w3.org/2000/svg" p-id="9782" width="200" height="200"><path d="M800 128c57.6 32 96 83.2 121.6 140.8 12.8 32 25.6 64 32 96 12.8 32 19.2 70.4 25.6 108.8 6.4 38.4 12.8 70.4 12.8 108.8 0 32 6.4 70.4 6.4 102.4 0 25.6-6.4 51.2-19.2 76.8-38.4 76.8-121.6 102.4-198.4 64-25.6-12.8-38.4-25.6-51.2-44.8-12.8-19.2-25.6-32-32-51.2-19.2-38.4-44.8-70.4-76.8-89.6-57.6-38.4-160-38.4-217.6 0-32 19.2-51.2 51.2-76.8 89.6-6.4 19.2-19.2 38.4-32 51.2-12.8 19.2-32 32-51.2 44.8-108.8 51.2-211.2-25.6-217.6-140.8 0-32 0-70.4 6.4-102.4 0-32 6.4-70.4 12.8-108.8 0-38.4 12.8-70.4 19.2-108.8 6.4-32 19.2-64 32-96 32-57.6 70.4-108.8 128-140.8 76.8-44.8 147.2-38.4 217.6-32 25.6 0 44.8 6.4 70.4 6.4 25.6 0 44.8 0 70.4-6.4 76.8-6.4 140.8-12.8 217.6 32zM454.4 492.8c-12.8 0-25.6-12.8-25.6-19.2 6.4-12.8 12.8-25.6 25.6-25.6h115.2c12.8 0 25.6 12.8 25.6 25.6s-12.8 19.2-25.6 19.2H454.4z m0-204.8c-12.8 0-25.6-12.8-25.6-19.2 0-12.8 12.8-25.6 25.6-25.6h115.2c12.8 0 25.6 12.8 25.6 25.6s-12.8 19.2-25.6 19.2H454.4z m-153.6-25.6c0-12.8 12.8-25.6 19.2-25.6 12.8 0 25.6 12.8 25.6 25.6v83.2h83.2c12.8 0 19.2 6.4 19.2 19.2 0 12.8-12.8 25.6-25.6 25.6H345.6v83.2c0 12.8-12.8 25.6-25.6 25.6s-19.2-12.8-19.2-25.6V390.4H224c-12.8 0-19.2-12.8-19.2-25.6s12.8-25.6 19.2-25.6h83.2V262.4h-6.4z m403.2 0c19.2 0 38.4 19.2 38.4 38.4s-19.2 38.4-38.4 38.4-38.4-19.2-38.4-38.4 19.2-38.4 38.4-38.4z m-25.6 102.4c0 19.2-19.2 38.4-38.4 38.4s-38.4-19.2-38.4-38.4 19.2-38.4 38.4-38.4c19.2 6.4 38.4 19.2 38.4 38.4z m25.6 32c19.2 0 38.4 19.2 38.4 38.4s-19.2 38.4-38.4 38.4-38.4-19.2-38.4-38.4c0-25.6 19.2-38.4 38.4-38.4z m102.4-32c0 19.2-19.2 38.4-38.4 38.4s-38.4-19.2-38.4-38.4 19.2-38.4 38.4-38.4c25.6 6.4 38.4 19.2 38.4 38.4zM761.6 192c-57.6-32-115.2-25.6-172.8-19.2H512c-25.6 0-51.2 0-76.8-6.4-64 0-121.6-6.4-172.8 25.6-44.8 25.6-76.8 64-96 108.8-12.8 25.6-19.2 57.6-32 83.2-6.4 32-12.8 70.4-19.2 102.4-6.4 32-6.4 64-12.8 102.4 0 32-6.4 64 0 96 0 19.2 6.4 32 12.8 44.8 25.6 57.6 89.6 51.2 128 6.4 0-12.8 12.8-32 19.2-44.8 25.6-51.2 57.6-89.6 96-115.2 83.2-57.6 217.6-57.6 300.8 0 38.4 25.6 70.4 64 96 115.2 6.4 12.8 19.2 32 25.6 38.4 38.4 44.8 102.4 51.2 128-6.4 6.4-12.8 12.8-25.6 12.8-44.8V582.4c0-32-6.4-64-12.8-102.4-6.4-32-12.8-64-25.6-102.4-6.4-32-19.2-64-32-89.6-12.8-32-44.8-70.4-89.6-96z" fill="#2c74d8" p-id="9783"></path></svg>