<?xml version="1.0" encoding="utf-8"?>
<!-- Generator: Adobe Illustrator 24.1.0, SVG Export Plug-In . SVG Version: 6.00 Build 0)  -->
<svg version="1.1" id="图层_1" xmlns="http://www.w3.org/2000/svg" xmlns:xlink="http://www.w3.org/1999/xlink" x="0px" y="0px"
	 viewBox="0 0 200 200" style="enable-background:new 0 0 200 200;" xml:space="preserve">
<style type="text/css">
	.st0{fill:#5790E0;}
</style>
<path class="st0" d="M100,2.6C44.8,2.6,0,47.4,0,102.6c0,43.7,28,80.8,67,94.4c5.3,1.3,4.4-2.4,4.4-5v-17.3
	c-30.3,3.6-31.5-16.5-33.6-19.9c-4.1-7-13.8-8.8-10.9-12.2c6.9-3.6,13.9,0.9,22.1,12.9c5.9,8.7,17.4,7.3,23.2,5.8
	c1.3-5.3,4-9.9,7.8-13.6c-31.4-5.6-44.5-24.8-44.5-47.6c0-11.1,3.6-21.2,10.8-29.4c-4.6-13.5,0.4-25.1,1.1-26.8
	c13-1.2,26.5,9.3,27.5,10.1c7.4-2,15.8-3,25.2-3c9.5,0,17.9,1.1,25.4,3.1c2.5-1.9,15-10.9,27.1-9.8c0.6,1.7,5.5,13,1.2,26.4
	c7.2,8.2,10.9,18.5,10.9,29.6c0,22.8-13.2,42-44.7,47.6c5.3,5.2,8.5,12.4,8.5,20.3v25.1c0.2,2,0,4,3.4,4
	c39.6-13.3,68.1-50.7,68.1-94.8C200,47.4,155.2,2.6,100,2.6L100,2.6z"/>
</svg>
