<?xml version="1.0" encoding="utf-8"?>
<!-- Generator: Adobe Illustrator 24.1.0, SVG Export Plug-In . SVG Version: 6.00 Build 0)  -->
<svg version="1.1" id="图层_1" xmlns="http://www.w3.org/2000/svg" xmlns:xlink="http://www.w3.org/1999/xlink" x="0px" y="0px"
	 viewBox="0 0 200 200" style="enable-background:new 0 0 200 200;" xml:space="preserve">
<style type="text/css">
	.st0{fill:#5790E0;}
</style>
<path class="st0" d="M137.2,73.8c-1-0.3-2.1,0.4-2.3,1.5c0,0.3,0,0.5,0,0.9c1.5,7.5,4,20.6,5,30.3c1.8,16.3-14.5,31.5-27.1,35.7
	c-19.9,6.8-42.8-9.4-48-28.4c-5.9-22.2,6.5-49.3,27-58.1c2.3-1,4.5-1.9,6.8-3c4.6-2.2,2.5-5.7,1.7-8.9c-2.1-8.8-3.4-17.7,1.2-25.8
	c6.8-12.4,24.6-22.1,38.4-16.1c6.1,2.3,11.9,5.2,17.5,8.4c4.8,3.1,7,8.9,5.3,14.3c-2.8,7.7-10.5,9.5-18.6,4.9
	c-2.8-1.8-5.8-3.5-8.8-5c-4-2.1-8.9-0.6-11.1,3.4c-0.8,1.3-1,2.8-0.9,4.4c0.1,3.1,0.5,6.1,1,9.2c0.6,3.6,3.2,6.6,6.8,7.5
	c5,1.2,10.1,2.6,14.8,4.5c19.6,8.6,33.7,22.8,40.1,44c12.1,39.2-10.7,78.3-44.4,93.3c-18.4,8.6-39.1,11.1-59,6.7
	c-28.4-6.7-52-26.3-63.9-52.9C9.9,124,7.4,102.9,14.7,80.4c9.5-29.9,28.8-50.3,57.9-61.5c5.3-1.9,11.2,0.1,14.2,4.9
	c3.4,4.9,1.9,11.5-2.8,14.8l-0.1,0.1c-4.1,2.6-8.4,4.8-12.8,6.8c-16.1,8.3-26.2,21.5-32.5,38.3c-12.5,32.5,4.6,70.3,33.2,85
	c26.2,13.7,61.9,8.3,81.3-14.3c11.5-13.2,15.9-31.1,11.7-48.1C161.7,93.2,146.9,76.2,137.2,73.8z M110.3,76.9
	c-0.4-1.7-2.1-2.7-3.7-2.3c-0.1,0-0.3,0-0.4,0.1c-16.8,5.8-24,23.9-16.1,38.6c3,5.4,9.2,8.3,15.2,7c7.2-2.1,12.1-7.4,11.1-13.9
	C114.9,96.4,112.5,86.6,110.3,76.9z"/>
</svg>
