<?xml version="1.0" encoding="utf-8"?>
<!-- Generator: Adobe Illustrator 24.1.0, SVG Export Plug-In . SVG Version: 6.00 Build 0)  -->
<svg version="1.1" id="图层_1" xmlns="http://www.w3.org/2000/svg" xmlns:xlink="http://www.w3.org/1999/xlink" x="0px" y="0px"
	 viewBox="0 0 200 200" style="enable-background:new 0 0 200 200;" xml:space="preserve">
<style type="text/css">
	.st0{fill:#5790E0;}
</style>
<path class="st0" d="M175.3,124.3c-3.8-12.4-8.3-22.7-15.1-39.7c1.1-44.7-17.5-80.8-60.3-80.8c-43.2,0-61.4,36.8-60.2,80.8
	c-6.8,17-11.2,27.3-15.1,39.7c-8.2,26.3-5.5,37.2-3.5,37.5C25.5,162.3,38,142,38,142c0,11.8,6.1,27.1,19.2,38.2
	c-6.3,1.9-20.6,7.2-17.2,12.9c2.7,4.6,47.2,3,60,1.5c12.8,1.4,57.3,3.1,60-1.5c3.4-5.7-10.9-11-17.2-12.9
	c13.1-11.1,19.2-26.5,19.2-38.2c0,0,12.5,20.3,16.9,19.8C180.9,161.5,183.5,150.6,175.3,124.3z"/>
</svg>
