<svg t="1676775540471" class="icon" viewBox="0 0 1024 1024" version="1.1" xmlns="http://www.w3.org/2000/svg" p-id="2148" width="200" height="200"><path d="M640 768v-193.824l-0.032-1.696A62.24 62.24 0 0 0 576 512h-128l-1.696-0.032c-34.4 0-62.304 27.84-62.304 62.208V768h64v-193.824h128V768h64z" p-id="2149" fill="#2c74d8"></path><path d="M192 448h64v320h64V256l192-127.296 192 125.728V768h64V448h64v320h64V448v-0.448A63.776 63.776 0 0 0 832 384h-64V216.384l-224.864-144.192a63.52 63.52 0 0 0-62.208 0L256 216.384V384H191.552A63.776 63.776 0 0 0 128 448v320h64V448z" p-id="2150" fill="#2c74d8"></path><path d="M576 448a32 32 0 0 0 32-32V288a32 32 0 0 0-32-32h-128a32 32 0 0 0-32 32v128a32 32 0 0 0 32 32h128z m-96-128h64v64h-64v-64zM928 832h-288.8A140.8 140.8 0 0 0 512 896a140.8 140.8 0 0 0-127.2-64H96l-64 64h352a161.44 161.44 0 0 1 92.384 32L512 960l32-29.152A162.176 162.176 0 0 1 640 896h352l-64-64z" p-id="2151" fill="#2c74d8"></path></svg>